<svg width="29" height="29" viewBox="0 0 29 29" fill="none" xmlns="http://www.w3.org/2000/svg">
<g id="naver blog">
<path id="Subtract" fill-rule="evenodd" clip-rule="evenodd" d="M21.3955 5.81485H7.51004C5.54474 5.81485 3.94414 7.4222 3.94414 9.38075V18.0119C3.94414 19.9772 5.5515 21.5778 7.51004 21.5778H12.4132L13.2574 23.0366L14.0881 24.4751C14.2366 24.7385 14.6148 24.7385 14.7702 24.4751L15.6009 23.0366L16.4451 21.5778H21.4022C23.3675 21.5778 24.9681 19.9704 24.9681 18.0119V9.38751C24.9681 7.42221 23.3608 5.81485 21.3955 5.81485ZM15.4252 12.1362C14.3514 12.1362 13.4802 12.9939 13.4802 14.0543C13.4802 15.1146 14.3514 15.9723 15.4252 15.9723C16.499 15.9723 17.3703 15.1146 17.3703 14.0543C17.3703 12.9939 16.5058 12.1362 15.4252 12.1362ZM15.4252 14.9727C14.9119 14.9727 14.4932 14.5608 14.4932 14.0543C14.4932 13.5477 14.9119 13.1358 15.4252 13.1358C15.9385 13.1358 16.3572 13.5477 16.3572 14.0543C16.3572 14.5608 15.9452 14.9727 15.4252 14.9727ZM8.15836 12.5752C8.46227 12.2983 8.85398 12.1362 9.2727 12.1362C10.2452 12.1362 11.0219 13.0007 11.0219 14.061C11.0219 15.1213 10.2385 15.979 9.2727 15.979C8.84723 15.979 8.46227 15.8102 8.15836 15.5401V15.8845H7.07778V10.9881H8.15836V12.5752ZM8.16511 14.4325C8.31369 14.7769 8.65812 15.0133 9.05659 15.0133C9.59688 15.0133 10.0291 14.5878 10.0291 14.0543C10.0291 13.5207 9.59688 13.0952 9.05659 13.0952C8.65812 13.0952 8.31369 13.3316 8.16511 13.6761C8.11108 13.7909 8.08407 13.9192 8.08407 14.0543C8.08407 14.1893 8.11784 14.3176 8.16511 14.4325ZM20.7403 12.2173V12.5212C20.4364 12.2848 20.0582 12.143 19.653 12.143C18.6602 12.143 17.8566 12.9737 17.8566 13.9935C17.8566 15.0133 18.6602 15.844 19.653 15.844C20.065 15.844 20.4432 15.7022 20.7403 15.4658V15.9791C20.7403 15.9791 20.6323 16.4856 19.8759 16.4856V17.4378C19.8759 17.4378 20.6931 17.5324 21.4225 16.803C21.4225 16.803 21.7601 16.4451 21.8344 15.9723V12.2173H20.7403ZM19.8556 14.9322C19.3086 14.9322 18.8696 14.5068 18.8696 13.9867C18.8696 13.4667 19.3153 13.0412 19.8556 13.0412C20.2406 13.0412 20.5783 13.2573 20.7403 13.568C20.8079 13.6963 20.8416 13.8382 20.8416 13.9867C20.8416 14.1353 20.8011 14.2839 20.7403 14.4055C20.5783 14.7229 20.2406 14.9322 19.8556 14.9322ZM11.1435 11.8728V10.8936C11.1435 10.8936 11.8594 10.799 12.4942 11.5487C12.4942 11.5487 12.7846 11.9134 12.8521 12.3996V12.4266V15.8845H11.7378V12.4266C11.6432 11.9404 11.1435 11.8728 11.1435 11.8728Z" fill="black"/>
</g>
</svg>
