<svg width="19" height="19" viewBox="0 0 19 19" fill="none" xmlns="http://www.w3.org/2000/svg">
<g id="Frame" clip-path="url(#clip0_84_16)">
<g id="Group">
<path id="Vector" d="M9.50001 1.77367C12.0181 1.77367 12.3137 1.7849 13.3089 1.82979C14.2293 1.87095 14.727 2.02436 15.06 2.15531C15.5015 2.32742 15.8158 2.52947 16.145 2.85872C16.4743 3.18798 16.6801 3.50227 16.8484 3.94378C16.9757 4.27678 17.1328 4.77441 17.174 5.69483C17.2189 6.69009 17.2301 6.98567 17.2301 9.50374C17.2301 12.0218 17.2189 12.3174 17.174 13.3127C17.1328 14.2331 16.9794 14.7307 16.8484 15.0637C16.6763 15.5052 16.4743 15.8195 16.145 16.1488C15.8158 16.478 15.5015 16.6838 15.06 16.8522C14.727 16.9794 14.2293 17.1365 13.3089 17.1777C12.3137 17.2226 12.0181 17.2338 9.50001 17.2338C6.98193 17.2338 6.68635 17.2226 5.69109 17.1777C4.77066 17.1365 4.27304 16.9831 3.94004 16.8522C3.49853 16.6801 3.18424 16.478 2.85498 16.1488C2.52572 15.8195 2.31994 15.5052 2.15157 15.0637C2.02435 14.7307 1.86721 14.2331 1.82605 13.3127C1.78115 12.3174 1.76993 12.0218 1.76993 9.50374C1.76993 6.98567 1.78115 6.69009 1.82605 5.69483C1.86721 4.77441 2.02061 4.27678 2.15157 3.94378C2.32368 3.50227 2.52572 3.18798 2.85498 2.85872C3.18424 2.52947 3.49853 2.32368 3.94004 2.15531C4.27304 2.0281 4.77066 1.87095 5.69109 1.82979C6.68635 1.78115 6.98567 1.77367 9.50001 1.77367ZM9.50001 0.0750008C6.94077 0.0750008 6.619 0.0862255 5.61252 0.131124C4.60978 0.176023 3.92507 0.33691 3.32642 0.568887C2.70532 0.808347 2.1815 1.13386 1.65768 1.65768C1.13386 2.1815 0.812086 2.70906 0.568884 3.32642C0.336907 3.92507 0.176019 4.60978 0.13112 5.61626C0.0862216 6.619 0.0749969 6.94077 0.0749969 9.5C0.0749969 12.0592 0.0862216 12.381 0.13112 13.3875C0.176019 14.3902 0.336907 15.0749 0.568884 15.6773C0.808344 16.2984 1.13386 16.8222 1.65768 17.3461C2.1815 17.8699 2.70906 18.1917 3.32642 18.4349C3.92507 18.6668 4.60978 18.8277 5.61626 18.8726C6.62274 18.9175 6.94077 18.9287 9.50375 18.9287C12.0667 18.9287 12.3848 18.9175 13.3912 18.8726C14.394 18.8277 15.0787 18.6668 15.6811 18.4349C16.3022 18.1954 16.826 17.8699 17.3498 17.3461C17.8736 16.8222 18.1954 16.2947 18.4386 15.6773C18.6706 15.0787 18.8315 14.394 18.8764 13.3875C18.9213 12.381 18.9325 12.063 18.9325 9.5C18.9325 6.93703 18.9213 6.619 18.8764 5.61252C18.8315 4.60978 18.6706 3.92507 18.4386 3.32268C18.1992 2.70158 17.8736 2.17776 17.3498 1.65394C16.826 1.13012 16.2984 0.808347 15.6811 0.565146C15.0824 0.333169 14.3977 0.172281 13.3912 0.127383C12.381 0.0862255 12.0592 0.0750008 9.50001 0.0750008Z" fill="black"/>
<path id="Vector_2" d="M9.49995 4.66209C6.82848 4.66209 4.65837 6.82845 4.65837 9.50367C4.65837 12.1789 6.82474 14.3453 9.49995 14.3453C12.1752 14.3453 14.3415 12.1789 14.3415 9.50367C14.3415 6.82845 12.1752 4.66209 9.49995 4.66209ZM9.49995 12.6428C7.76387 12.6428 6.35704 11.236 6.35704 9.49993C6.35704 7.76384 7.76387 6.35702 9.49995 6.35702C11.236 6.35702 12.6429 7.76384 12.6429 9.49993C12.6429 11.236 11.236 12.6428 9.49995 12.6428Z" fill="black"/>
<path id="Vector_3" d="M14.5323 5.59757C15.1563 5.59757 15.6622 5.09168 15.6622 4.46762C15.6622 3.84356 15.1563 3.33767 14.5323 3.33767C13.9082 3.33767 13.4023 3.84356 13.4023 4.46762C13.4023 5.09168 13.9082 5.59757 14.5323 5.59757Z" fill="black"/>
</g>
</g>
<defs>
<clipPath id="clip0_84_16">
<rect width="18.85" height="18.85" fill="white" transform="translate(0.0749969 0.0750008)"/>
</clipPath>
</defs>
</svg>
