<svg width="19" height="14" viewBox="0 0 19 14" fill="none" xmlns="http://www.w3.org/2000/svg">
<g id="Group 547">
<path id="Vector" d="M18.1872 2.72743C17.9819 1.95752 17.3788 1.35443 16.6217 1.14912C15.2358 0.776991 9.70531 0.776991 9.70531 0.776991C9.70531 0.776991 4.16195 0.776991 2.78894 1.14912C2.03186 1.35443 1.42877 1.95752 1.22346 2.72743C0.851334 4.11328 0.851334 7.01328 0.851334 7.01328C0.851334 7.01328 0.851334 9.91328 1.22346 11.2991C1.42877 12.069 2.03186 12.6721 2.78894 12.8774C4.17478 13.2496 9.70531 13.2496 9.70531 13.2496C9.70531 13.2496 15.2487 13.2496 16.6217 12.8774C17.3788 12.6721 17.9819 12.069 18.1872 11.2991C18.5593 9.91328 18.5593 7.01328 18.5593 7.01328C18.5593 7.01328 18.5593 4.11328 18.1872 2.72743ZM7.89602 9.64381V4.38274L12.5283 7.01328L7.89602 9.64381Z" fill="black"/>
</g>
</svg>
